<mxfile host="app.diagrams.net" agent="Mozilla/5.0 (Windows NT 10.0; Win64; x64; rv:134.0) Gecko/20100101 Firefox/134.0" version="26.0.6">
  <diagram name="Page-1" id="E1Meq_LMT7FNtELlFsRH">
    <mxGraphModel dx="600" dy="358" grid="1" gridSize="10" guides="1" tooltips="1" connect="1" arrows="1" fold="1" page="1" pageScale="1" pageWidth="827" pageHeight="1169" math="0" shadow="0">
      <root>
        <mxCell id="0" />
        <mxCell id="1" parent="0" />
        <mxCell id="drSC2y-xerrCYag6_PCV-1" value="&lt;div&gt;&lt;b&gt;v_co2capture&lt;/b&gt;&lt;/div&gt;&lt;div&gt;co2 in a tank&lt;br&gt;&lt;/div&gt;" style="rounded=1;whiteSpace=wrap;html=1;" vertex="1" parent="1">
          <mxGeometry x="360" y="260" width="120" height="40" as="geometry" />
        </mxCell>
        <mxCell id="drSC2y-xerrCYag6_PCV-4" value="&lt;div&gt;&lt;b&gt;vm_emiTeDetail (cco2)&lt;br&gt;&lt;/b&gt;&lt;/div&gt;&lt;div&gt;energy related emissions&lt;/div&gt;&lt;div&gt;- fossil CC&lt;/div&gt;&lt;div&gt;- BECC&lt;/div&gt;" style="rounded=1;whiteSpace=wrap;html=1;" vertex="1" parent="1">
          <mxGeometry x="190" y="320" width="140" height="70" as="geometry" />
        </mxCell>
        <mxCell id="drSC2y-xerrCYag6_PCV-5" value="" style="endArrow=classic;html=1;rounded=0;exitX=0.612;exitY=0.033;exitDx=0;exitDy=0;exitPerimeter=0;entryX=0.25;entryY=1;entryDx=0;entryDy=0;" edge="1" parent="1" source="drSC2y-xerrCYag6_PCV-4" target="drSC2y-xerrCYag6_PCV-1">
          <mxGeometry width="50" height="50" relative="1" as="geometry">
            <mxPoint x="400" y="330" as="sourcePoint" />
            <mxPoint x="450" y="280" as="targetPoint" />
          </mxGeometry>
        </mxCell>
        <mxCell id="drSC2y-xerrCYag6_PCV-6" value="&lt;div&gt;&lt;b&gt;vm_co2capture_cdr&lt;/b&gt;&lt;/div&gt;&lt;div&gt;- DACC&lt;/div&gt;&lt;div&gt;- OAE capture&lt;br&gt;&lt;/div&gt;" style="rounded=1;whiteSpace=wrap;html=1;" vertex="1" parent="1">
          <mxGeometry x="290" y="420" width="140" height="70" as="geometry" />
        </mxCell>
        <mxCell id="drSC2y-xerrCYag6_PCV-7" value="" style="endArrow=classic;html=1;rounded=0;exitX=0.75;exitY=0;exitDx=0;exitDy=0;entryX=0.75;entryY=1;entryDx=0;entryDy=0;" edge="1" parent="1" source="drSC2y-xerrCYag6_PCV-6" target="drSC2y-xerrCYag6_PCV-1">
          <mxGeometry width="50" height="50" relative="1" as="geometry">
            <mxPoint x="370" y="372" as="sourcePoint" />
            <mxPoint x="405" y="330" as="targetPoint" />
          </mxGeometry>
        </mxCell>
        <mxCell id="drSC2y-xerrCYag6_PCV-8" value="&lt;div&gt;&lt;b&gt;vm_emiIndCCS&lt;/b&gt;&lt;/div&gt;&lt;div&gt;&lt;i&gt;&lt;span style=&quot;color: rgb(255, 0, 0);&quot;&gt;hopefully &lt;/span&gt;industry process emissions&lt;b&gt;&lt;br&gt;&lt;/b&gt;&lt;/i&gt;&lt;/div&gt;" style="rounded=1;whiteSpace=wrap;html=1;" vertex="1" parent="1">
          <mxGeometry x="430" y="380" width="140" height="70" as="geometry" />
        </mxCell>
        <mxCell id="drSC2y-xerrCYag6_PCV-9" value="" style="endArrow=classic;html=1;rounded=0;entryX=0.866;entryY=1.124;entryDx=0;entryDy=0;entryPerimeter=0;exitX=0.25;exitY=0;exitDx=0;exitDy=0;" edge="1" parent="1" source="drSC2y-xerrCYag6_PCV-8" target="drSC2y-xerrCYag6_PCV-1">
          <mxGeometry width="50" height="50" relative="1" as="geometry">
            <mxPoint x="370" y="450" as="sourcePoint" />
            <mxPoint x="420" y="400" as="targetPoint" />
          </mxGeometry>
        </mxCell>
        <mxCell id="drSC2y-xerrCYag6_PCV-10" value="&lt;div&gt;&lt;b&gt;vm_incinerationCCS&lt;/b&gt;&lt;/div&gt;&lt;div&gt;&lt;i&gt;waste incineration&lt;b&gt;&lt;br&gt;&lt;/b&gt;&lt;/i&gt;&lt;/div&gt;" style="rounded=1;whiteSpace=wrap;html=1;" vertex="1" parent="1">
          <mxGeometry x="550" y="330" width="140" height="50" as="geometry" />
        </mxCell>
        <mxCell id="drSC2y-xerrCYag6_PCV-11" value="" style="endArrow=classic;html=1;rounded=0;entryX=1;entryY=1;entryDx=0;entryDy=0;exitX=0;exitY=0;exitDx=0;exitDy=0;" edge="1" parent="1" source="drSC2y-xerrCYag6_PCV-10" target="drSC2y-xerrCYag6_PCV-1">
          <mxGeometry width="50" height="50" relative="1" as="geometry">
            <mxPoint x="475" y="390" as="sourcePoint" />
            <mxPoint x="457" y="314" as="targetPoint" />
          </mxGeometry>
        </mxCell>
      </root>
    </mxGraphModel>
  </diagram>
</mxfile>
